<svg xmlns="http://www.w3.org/2000/svg" xmlns:xlink="http://www.w3.org/1999/xlink" width="1024" height="1024" viewBox="0 0 1024 1024"><defs id="tile-defs">
    <linearGradient id="ls-base" x1="0.08" y1="0.02" x2="0.92" y2="1">
      <stop offset="0" stop-color="#0f6b7c"/>
      <stop offset="0.55" stop-color="#0a4c5a"/>
      <stop offset="1" stop-color="#05303a"/>
    </linearGradient>
    <radialGradient id="ls-glow" cx="0.78" cy="0.18" r="0.62">
      <stop offset="0" stop-color="#3cc0d4" stop-opacity="0.62"/>
      <stop offset="0.45" stop-color="#1f8ea2" stop-opacity="0.22"/>
      <stop offset="1" stop-color="#1f8ea2" stop-opacity="0"/>
    </radialGradient>
    <radialGradient id="ls-deep" cx="0.18" cy="0.92" r="0.6">
      <stop offset="0" stop-color="#021c23" stop-opacity="0.55"/>
      <stop offset="1" stop-color="#021c23" stop-opacity="0"/>
    </radialGradient>
    <linearGradient id="ls-gloss" x1="0" y1="0" x2="0" y2="1">
      <stop offset="0" stop-color="#ffffff" stop-opacity="0.16"/>
      <stop offset="0.42" stop-color="#ffffff" stop-opacity="0.03"/>
      <stop offset="1" stop-color="#ffffff" stop-opacity="0"/>
    </linearGradient>
    <linearGradient id="ls-s" x1="0" y1="0" x2="0" y2="1">
      <stop offset="0" stop-color="#ffffff"/>
      <stop offset="1" stop-color="#e3f3f6"/>
    </linearGradient>
    <filter id="ls-soft" x="-20%" y="-20%" width="140%" height="140%">
      <feGaussianBlur stdDeviation="22"/>
    </filter>
    <filter id="ls-shadow" x="-20%" y="-20%" width="140%" height="140%">
      <feDropShadow dx="0" dy="14" stdDeviation="16" flood-color="#011a20" flood-opacity="0.45"/>
    </filter>
  </defs><clipPath id="c159"><rect x="0" y="0" width="1024" height="1024" rx="228"/></clipPath><g clip-path="url(#c159)">
    <g id="tile">
      <rect width="1024" height="1024" fill="url(#ls-base)"/>
      <rect width="1024" height="1024" fill="url(#ls-glow)"/>
      <rect width="1024" height="1024" fill="url(#ls-deep)"/>
      <g filter="url(#ls-soft)" fill="none" stroke="#7fe3f0" stroke-linecap="round">
        <path d="M -40 300 C 220 180 420 420 690 260 S 1010 120 1100 210" stroke-width="54" stroke-opacity="0.17"/>
        <path d="M -60 760 C 200 640 380 860 640 700 S 980 560 1090 640" stroke-width="70" stroke-opacity="0.12"/>
        <path d="M 760 -40 C 700 220 900 360 820 620" stroke-width="40" stroke-opacity="0.12"/>
      </g>
      <rect width="1024" height="1024" fill="url(#ls-gloss)"/>
    </g>
    
    <rect id="rim" x="6" y="6" width="1012" height="1012" rx="222" ry="222" fill="none" stroke="#bff3fb" stroke-opacity="0.22" stroke-width="8"/>
    </g>
  <g id="glyph" filter="url(#ls-shadow)">
    <path d="M 690 318 C 650 262 590 236 508 236 C 404 236 330 292 330 378 C 330 470 408 494 512 518 C 618 542 696 572 696 662 C 696 748 620 796 512 796 C 424 796 360 766 318 706" fill="none" stroke="url(#ls-s)" stroke-width="132" stroke-linecap="butt" stroke-linejoin="round"/>
  </g>
  </svg>